# xmcd CD database file
#
# Track frame offsets:
#	150
#	17154
#	36307
#	56456
#	69610
#	93518
#	112083
#	126527
#	148145
#	164217
#	182782
#	208561
#
# Disc length: 3104 seconds
#
# Revision: 0
# Processed by: cddbd v1.5.2PL0 Copyright (c) Steve Scherf et al.
# Submitted via: CDex 1.70beta2
#
DISCID=bf0c1e0c
DTITLE=Giancarlo Maurino, Roberto Taufic - Um Abraço
DYEAR=2005
DGENRE=Jazz
TTITLE0=Um abraço
TTITLE1=No fundo do rio
TTITLE2=Horta
TTITLE3=Dr. Charlie
TTITLE4=Nó na garganta
TTITLE5=Samba do avião
TTITLE6=Un nuovo giorno
TTITLE7=Ingênuo mestre
TTITLE8=The days of wine and roses
TTITLE9=Merry go round
TTITLE10=Meteo
TTITLE11=Di menor
EXTD=Giancarlo Maurino: soprano, alto and tenor sax\nRoberto Taufic acoustic and nylon string guitar, vocals YEAR: 2005
EXTT0=
EXTT1=
EXTT2=
EXTT3=
EXTT4=
EXTT5=
EXTT6=
EXTT7=
EXTT8=
EXTT9=
EXTT10=
EXTT11=
PLAYORDER=
